<svg width="16" height="18" viewBox="0 0 16 18" fill="none" xmlns="http://www.w3.org/2000/svg">
<g filter="url(#filter0_i_709_2469)">
<path d="M14.4633 10.0933H5.71667C6.34138 9.8094 7.01822 9.59576 7.71702 9.3779C8.98138 8.98397 10.2826 8.57575 11.3411 7.686H14.4633C14.7165 7.686 14.9216 7.48083 14.9216 7.22767C14.9216 6.97451 14.7165 6.76934 14.4633 6.76934H12.1646C12.7073 5.91932 12.8413 4.87679 12.5129 3.81273C12.0273 2.23936 10.6387 0.924156 9.13589 0.614423C7.74066 0.326532 6.18501 0.64092 4.97651 1.45482C3.91948 2.16667 3.21891 3.2015 3.00353 4.36917C2.9577 4.61803 3.12223 4.85723 3.37127 4.90306C3.61978 4.94746 3.85915 4.78454 3.90516 4.53532C4.07524 3.61221 4.6376 2.78828 5.48856 2.21537C6.49689 1.5361 7.79007 1.27184 8.95112 1.51247C10.141 1.75739 11.2457 2.81478 11.637 4.08307C11.8139 4.65599 11.9768 5.75492 11.0827 6.67874C11.0513 6.71124 11.0164 6.73809 10.9842 6.76934H1.53597C1.28281 6.76934 1.07764 6.97451 1.07764 7.22767C1.07764 7.48083 1.28281 7.686 1.53597 7.686H9.65317C8.97256 8.02176 8.22197 8.26031 7.44435 8.50277C6.22975 8.88145 4.97969 9.27359 3.93998 10.0933H1.53597C1.28281 10.0933 1.07764 10.2985 1.07764 10.5517C1.07764 10.8048 1.28281 11.01 1.53597 11.01H3.07403C2.34472 12.1398 2.32463 13.7014 3.08481 15.0505C4.06862 16.7961 5.97912 17.4875 7.81245 17.4875C8.44982 17.4875 9.07788 17.4041 9.65438 17.2523C12.0692 16.616 13.5667 14.9248 13.5627 12.839C13.5624 12.5859 13.3572 12.3814 13.1044 12.3814C13.1041 12.3814 13.1037 12.3814 13.1037 12.3814C12.8505 12.3818 12.6457 12.5877 12.6461 12.8405C12.65 14.8124 10.9825 15.9543 9.42091 16.3657C7.45509 16.8831 4.92191 16.4434 3.88332 14.6007C3.3147 13.5913 3.16592 12.0624 4.1832 11.0913C4.21366 11.0622 4.24703 11.038 4.27811 11.01H14.4633C14.7165 11.01 14.9216 10.8048 14.9216 10.5517C14.9216 10.2985 14.7165 10.0933 14.4633 10.0933Z" fill="#1D1C1A"/>
</g>
<path d="M14.4633 10.0933H5.71667C6.34138 9.8094 7.01822 9.59576 7.71702 9.3779C8.98138 8.98397 10.2826 8.57575 11.3411 7.686H14.4633C14.7165 7.686 14.9216 7.48083 14.9216 7.22767C14.9216 6.97451 14.7165 6.76934 14.4633 6.76934H12.1646C12.7073 5.91932 12.8413 4.87679 12.5129 3.81273C12.0273 2.23936 10.6387 0.924156 9.13589 0.614423C7.74066 0.326532 6.18501 0.64092 4.97651 1.45482C3.91948 2.16667 3.21891 3.2015 3.00353 4.36917C2.9577 4.61803 3.12223 4.85723 3.37127 4.90306C3.61978 4.94746 3.85915 4.78454 3.90516 4.53532C4.07524 3.61221 4.6376 2.78828 5.48856 2.21537C6.49689 1.5361 7.79007 1.27184 8.95112 1.51247C10.141 1.75739 11.2457 2.81478 11.637 4.08307C11.8139 4.65599 11.9768 5.75492 11.0827 6.67874C11.0513 6.71124 11.0164 6.73809 10.9842 6.76934H1.53597C1.28281 6.76934 1.07764 6.97451 1.07764 7.22767C1.07764 7.48083 1.28281 7.686 1.53597 7.686H9.65317C8.97256 8.02176 8.22197 8.26031 7.44435 8.50277C6.22975 8.88145 4.97969 9.27359 3.93998 10.0933H1.53597C1.28281 10.0933 1.07764 10.2985 1.07764 10.5517C1.07764 10.8048 1.28281 11.01 1.53597 11.01H3.07403C2.34472 12.1398 2.32463 13.7014 3.08481 15.0505C4.06862 16.7961 5.97912 17.4875 7.81245 17.4875C8.44982 17.4875 9.07788 17.4041 9.65438 17.2523C12.0692 16.616 13.5667 14.9248 13.5627 12.839C13.5624 12.5859 13.3572 12.3814 13.1044 12.3814C13.1041 12.3814 13.1037 12.3814 13.1037 12.3814C12.8505 12.3818 12.6457 12.5877 12.6461 12.8405C12.65 14.8124 10.9825 15.9543 9.42091 16.3657C7.45509 16.8831 4.92191 16.4434 3.88332 14.6007C3.3147 13.5913 3.16592 12.0624 4.1832 11.0913C4.21366 11.0622 4.24703 11.038 4.27811 11.01H14.4633C14.7165 11.01 14.9216 10.8048 14.9216 10.5517C14.9216 10.2985 14.7165 10.0933 14.4633 10.0933Z" stroke="black" stroke-width="0.7"/>
<defs>
<filter id="filter0_i_709_2469" x="0.727539" y="0.160156" width="14.5439" height="21.6777" filterUnits="userSpaceOnUse" color-interpolation-filters="sRGB">
<feFlood flood-opacity="0" result="BackgroundImageFix"/>
<feBlend mode="normal" in="SourceGraphic" in2="BackgroundImageFix" result="shape"/>
<feColorMatrix in="SourceAlpha" type="matrix" values="0 0 0 0 0 0 0 0 0 0 0 0 0 0 0 0 0 0 127 0" result="hardAlpha"/>
<feOffset dy="4"/>
<feGaussianBlur stdDeviation="2"/>
<feComposite in2="hardAlpha" operator="arithmetic" k2="-1" k3="1"/>
<feColorMatrix type="matrix" values="0 0 0 0 0 0 0 0 0 0 0 0 0 0 0 0 0 0 0.25 0"/>
<feBlend mode="normal" in2="shape" result="effect1_innerShadow_709_2469"/>
</filter>
</defs>
</svg>
